<svg width="222" height="44" viewBox="0 0 222 44" fill="none" xmlns="http://www.w3.org/2000/svg">
<g clip-path="url(#clip0_499_19713)">
<path d="M79.588 23.1572H63.7454C63.9533 24.9321 64.4939 26.2942 65.4502 27.2022C66.4066 28.1103 67.6541 28.5643 69.2342 28.5643C71.6043 28.5643 73.1844 27.5737 74.0576 25.5512H79.0058C78.4653 27.6976 77.301 29.3899 75.5546 30.6694C73.8081 31.949 71.6875 32.5681 69.151 32.5681C65.9908 32.5681 63.4543 31.5775 61.5416 29.555C59.6288 27.5324 58.6309 24.8908 58.6309 21.5887C58.6309 18.2867 59.5872 15.6037 61.5 13.6225C63.4543 11.6 65.9908 10.6094 69.0678 10.6094C72.2696 10.6094 74.8061 11.6413 76.6773 13.7463C78.5484 15.8514 79.5048 18.5756 79.5048 21.9602V23.1572H79.588ZM63.787 19.6075H74.4319C74.2239 18.0803 73.6418 16.842 72.727 15.934C71.8122 15.0259 70.6064 14.5719 69.1094 14.5719C66.0324 14.5719 64.286 16.2642 63.787 19.6075Z" fill="white"/>
<path d="M87.9444 28.6454C85.3248 25.9212 83.9941 22.2064 83.9941 17.6248C83.9941 13.0019 85.2832 9.28707 87.9028 6.56287C90.4809 3.83866 93.8906 2.47656 98.1735 2.47656C101.583 2.47656 104.494 3.38463 106.906 5.20077C109.317 7.0169 110.814 9.65855 111.396 13.0844H105.783C105.284 11.1858 104.369 9.7411 103.038 8.75048C101.708 7.75987 100.086 7.26456 98.1319 7.26456C95.5538 7.26456 93.4747 8.17262 92.0194 10.03C90.5224 11.8462 89.774 14.4053 89.774 17.6248C89.774 20.8856 90.5224 23.4034 91.9778 25.2195C93.4332 27.0357 95.5122 27.9437 98.1319 27.9437C100.169 27.9437 101.874 27.3659 103.33 26.1689C104.785 24.9719 105.658 23.3208 105.949 21.2158H111.48C111.105 24.8893 109.692 27.7374 107.113 29.7599C104.619 31.7824 101.583 32.773 98.0903 32.773C93.9321 32.7317 90.564 31.3696 87.9444 28.6454Z" fill="white"/>
<path d="M116.721 32.1136V11.1043H121.877V32.1136H116.721ZM116.762 8.33877V3.55078H121.835V8.33877H116.762Z" fill="white"/>
<path d="M139.176 14.9848H134.976V26.3357C134.976 26.9961 135.143 27.4914 135.517 27.7803C135.891 28.0693 136.515 28.1931 137.388 28.1931H139.134V32.1143C138.012 32.2381 137.097 32.2794 136.432 32.2794C134.145 32.2794 132.44 31.8666 131.4 30.9998C130.361 30.1331 129.82 28.771 129.82 26.9135V14.9848H126.535V11.0636H129.82V4.99609H134.935V11.1049H139.134V14.9848H139.176Z" fill="white"/>
<path d="M144.246 32.1136V11.1043H149.402V32.1136H144.246ZM144.288 8.33877V3.55078H149.361V8.33877H144.288Z" fill="white"/>
<path d="M172.565 28.1072V32.1109H154.602V28.7263L162.959 18.2836C163.334 17.8295 163.833 17.2517 164.415 16.55C164.997 15.8483 165.413 15.353 165.621 15.064C164.955 15.1053 163.5 15.1053 161.255 15.1053H154.768V11.1016H172.024V14.4449L163.666 24.8877C163.292 25.3417 162.793 25.9196 162.211 26.6213C161.629 27.323 161.213 27.8183 161.005 28.1072C161.67 28.0659 163.126 28.0659 165.371 28.0659H172.565V28.1072Z" fill="white"/>
<path d="M196.641 23.1572H180.798C181.006 24.9321 181.547 26.2942 182.503 27.2022C183.459 28.1103 184.707 28.5643 186.287 28.5643C188.657 28.5643 190.237 27.5737 191.11 25.5512H196.059C195.518 27.6976 194.354 29.3899 192.607 30.6694C190.861 31.949 188.74 32.5681 186.204 32.5681C183.044 32.5681 180.507 31.5775 178.594 29.555C176.682 27.5324 175.684 24.8908 175.684 21.5887C175.684 18.2867 176.64 15.6037 178.553 13.6225C180.507 11.6 183.044 10.6094 186.121 10.6094C189.322 10.6094 191.859 11.6413 193.73 13.7463C195.601 15.8514 196.558 18.5756 196.558 21.9602V23.1572H196.641ZM180.84 19.6075H191.443C191.235 18.0803 190.653 16.842 189.738 15.934C188.823 15.0259 187.618 14.5719 186.121 14.5719C183.085 14.5719 181.339 16.2642 180.84 19.6075Z" fill="white"/>
<path d="M219.052 12.5906C220.382 13.9114 221.048 15.7688 221.048 18.2041V32.1141H215.892V19.0296C215.892 16.388 214.561 15.0259 211.9 15.0259C210.569 15.0259 209.488 15.4799 208.573 16.4293C207.658 17.3786 207.201 18.6582 207.201 20.3092V32.0728H202.045V11.1047H207.035V14.1178C208.656 11.7651 210.86 10.6094 213.646 10.6094C215.892 10.6094 217.721 11.2698 219.052 12.5906Z" fill="white"/>
<mask id="mask0_499_19713" style="mask-type:alpha" maskUnits="userSpaceOnUse" x="21" y="39" width="6" height="5">
<path fill-rule="evenodd" clip-rule="evenodd" d="M26.3804 43.9923H21.6816V39.3281H26.3804V43.9923Z" fill="white"/>
</mask>
<g mask="url(#mask0_499_19713)">
<path fill-rule="evenodd" clip-rule="evenodd" d="M26.3857 41.6809C26.3857 42.9604 25.3461 44.0336 24.0571 44.0336C22.7681 44.0336 21.7285 43.0017 21.7285 41.6809C21.7285 40.4013 22.7681 39.3281 24.0571 39.3281C25.3045 39.3281 26.3857 40.36 26.3857 41.6809Z" fill="white"/>
</g>
<mask id="mask1_499_19713" style="mask-type:alpha" maskUnits="userSpaceOnUse" x="0" y="11" width="5" height="5">
<path fill-rule="evenodd" clip-rule="evenodd" d="M0 15.8422V11.1367H4.65714V15.8422H0Z" fill="white"/>
</mask>
<g mask="url(#mask1_499_19713)">
<path fill-rule="evenodd" clip-rule="evenodd" d="M4.65714 13.4894C4.65714 14.769 3.6176 15.8422 2.32857 15.8422C1.03954 15.8422 0 14.769 0 13.4894C0 12.2099 1.03954 11.1367 2.32857 11.1367C3.6176 11.1367 4.65714 12.2099 4.65714 13.4894Z" fill="white"/>
</g>
<path fill-rule="evenodd" clip-rule="evenodd" d="M40.665 8.75116C40.665 10.0307 39.6254 11.1039 38.3364 11.1039C37.0474 11.1039 36.0078 10.072 36.0078 8.75116C36.0078 7.47161 37.0474 6.39844 38.3364 6.39844C39.6254 6.43971 40.665 7.47161 40.665 8.75116Z" fill="white"/>
<path d="M19.501 12.3396C16.8398 13.4953 14.2617 15.1464 12.0579 17.2514C9.85405 19.3565 7.94129 21.8331 6.65227 24.5985C6.02854 25.9606 5.52956 27.4053 5.36324 28.8912C5.19691 30.3359 5.28007 31.8218 5.94538 33.1014L6.19487 33.5967L6.52752 34.0507L6.69385 34.2571L6.90176 34.4635L7.27599 34.8762C7.40073 35 7.56706 35.1239 7.69181 35.2064C7.85813 35.3303 7.98288 35.4541 8.1492 35.5366L8.64818 35.8256L8.89767 35.9907L9.14716 36.1145C10.5609 36.7749 12.1826 37.0638 13.8459 37.1877C13.9706 37.1877 14.0538 37.3115 14.0538 37.394C14.0538 37.5179 13.9706 37.5591 13.8459 37.6004C12.1826 37.7242 10.4362 37.6417 8.77293 37.1464L8.44027 37.0638L8.1492 36.94L7.4839 36.6511C7.27599 36.5685 7.06808 36.4447 6.90176 36.3209C6.69385 36.197 6.48594 36.1145 6.31961 35.9907L5.77905 35.5779L5.48798 35.3715L5.23849 35.1239L4.73951 34.6286L4.3237 34.0507L4.15737 33.7618C4.11579 33.6792 4.03263 33.5554 3.99105 33.4728L3.65839 32.8537C3.57523 32.6473 3.49207 32.4409 3.4089 32.1933C3.32574 31.9869 3.24258 31.7393 3.201 31.5329C3.07625 31.0376 2.95151 30.5835 2.90992 30.1295C2.86834 29.8818 2.82676 29.6755 2.82676 29.4278L2.78518 28.7261C2.7436 26.91 3.03467 25.0939 3.53365 23.4015C4.53161 19.9757 6.31961 16.8387 8.52344 14.0319C10.7273 11.2252 13.4301 8.74863 16.6318 6.80867C18.0872 5.9006 20.0415 6.35464 20.9563 7.79929C21.8711 9.24394 21.4137 11.1839 19.9584 12.092C19.792 12.2158 19.6257 12.2571 19.501 12.3396Z" fill="white"/>
<path d="M30.7707 24.1051C31.145 21.257 31.0618 18.2026 30.3965 15.2308C29.7312 12.2589 28.6085 9.36961 26.8621 6.85178C25.9889 5.61351 24.9909 4.45779 23.8266 3.54972C22.6623 2.64165 21.3317 1.98124 19.8764 1.85741L19.3358 1.81614L18.7952 1.85741H18.5042L18.2963 1.93996L17.7557 2.06379C17.5894 2.10507 17.423 2.18762 17.2151 2.27017C17.0488 2.35272 16.8409 2.394 16.6746 2.47655L16.1756 2.76548L15.9261 2.88931L15.6766 3.05441C14.3876 3.9212 13.2649 5.15947 12.3085 6.4803C12.2254 6.56285 12.1006 6.60413 12.0174 6.52158C11.9343 6.4803 11.8927 6.35647 11.9343 6.27392C12.7243 4.78799 13.6391 3.38462 14.9282 2.18762L15.1776 1.98124L15.4271 1.77486L15.9677 1.3621C16.134 1.23827 16.3419 1.11445 16.5498 1.03189C16.7577 0.908068 16.9657 0.825516 17.1736 0.701689L17.8389 0.412758L18.1715 0.288931L18.5042 0.206379L19.2111 0.0412758L19.9179 0L20.2922 0C20.4169 0 20.5417 0 20.6248 0L21.3317 0.0412758C21.5812 0.0825516 21.7891 0.123827 22.0386 0.165103C22.2881 0.206379 22.496 0.247655 22.7039 0.330206C23.1613 0.454034 23.6187 0.577861 24.0345 0.78424C24.2424 0.866792 24.4503 0.949343 24.6582 1.07317L25.282 1.40338C26.9036 2.31144 28.2758 3.50844 29.4817 4.78799C31.8934 7.42964 33.6814 10.5253 34.9705 13.8687C36.2595 17.212 36.9664 20.7617 37.008 24.4765C37.008 26.2101 35.6358 27.6135 33.9309 27.6135C32.1845 27.6135 30.7707 26.2514 30.7707 24.5591C30.7707 24.4353 30.7707 24.2702 30.7707 24.1051Z" fill="white"/>
<path d="M14.8029 27.7771C17.0483 29.5932 19.7095 31.0791 22.6202 32.0698C25.4893 33.0604 28.608 33.597 31.6434 33.4731C33.1819 33.3906 34.6789 33.1429 36.0511 32.6476C37.4233 32.111 38.7123 31.3681 39.5439 30.2124L39.8766 29.7583L40.1261 29.263L40.2508 29.0154L40.334 28.7677L40.5003 28.2311C40.5419 28.066 40.5835 27.8596 40.625 27.6945C40.6666 27.5294 40.7082 27.3231 40.7082 27.158L40.7498 26.5801V26.2912V26.0022C40.6666 24.4337 40.2092 22.8653 39.5855 21.3793C39.5439 21.2555 39.5855 21.173 39.7102 21.0904C39.7934 21.0491 39.9182 21.0904 39.9597 21.173C40.8329 22.5763 41.5398 24.1448 41.9141 25.8784L41.9972 26.2086L42.0388 26.5388L42.0804 27.1992C42.122 27.4056 42.0804 27.6533 42.0804 27.8596C42.0804 28.066 42.0804 28.3137 42.0388 28.5201L41.9141 29.1805L41.8309 29.5107L41.7062 29.8409L41.4983 30.5426L41.1656 31.1617L40.9993 31.4919C40.9577 31.5745 40.8745 31.6983 40.7914 31.7808L40.3755 32.3587C40.2092 32.5238 40.0845 32.6889 39.9182 32.8953C39.7518 33.0604 39.5855 33.2668 39.4192 33.3906C39.0865 33.6795 38.7123 34.0097 38.3381 34.2574C38.1301 34.3812 37.9638 34.5463 37.7559 34.6289L37.1738 34.9591C35.5521 35.8259 33.8057 36.4037 32.0592 36.7339C28.5248 37.3943 24.9072 37.2705 21.4144 36.6514C17.8799 36.0322 14.4286 34.7527 11.2269 32.854C9.72993 31.9872 9.27253 30.0885 10.1457 28.6026C11.019 27.1167 12.9317 26.6626 14.4286 27.5294C14.5534 27.5707 14.6781 27.6945 14.8029 27.7771Z" fill="white"/>
</g>
<defs>
<clipPath id="clip0_499_19713">
<rect width="221.048" height="44" fill="white"/>
</clipPath>
</defs>
</svg>
