<svg width="70" height="70" viewBox="0 0 70 70" fill="none" xmlns="http://www.w3.org/2000/svg">
<path d="M15.2178 44.8535V48.2491C15.2225 49.3098 15.6459 50.3257 16.3959 51.0757C17.1459 51.8257 18.1618 52.2492 19.2225 52.2539H50.6967C51.7572 52.2489 52.7728 51.8253 53.5225 51.0753C54.2723 50.3253 54.6956 49.3096 54.7002 48.2491V44.8535H15.2178Z" fill="#E7ECF2"/>
<path d="M44.6863 59.9157H25.23C24.9183 59.9157 24.6193 59.7919 24.3989 59.5715C24.1785 59.3511 24.0547 59.0521 24.0547 58.7404C24.0547 58.4287 24.1785 58.1298 24.3989 57.9094C24.6193 57.689 24.9183 57.5652 25.23 57.5652C25.8741 57.5591 26.5073 57.3976 27.0757 57.0944C27.6441 56.7913 28.1309 56.3554 28.4948 55.8238C28.6707 55.5645 28.9413 55.3846 29.2485 55.3229C29.5557 55.2611 29.8748 55.3224 30.1372 55.4936C30.3997 55.6648 30.5844 55.9321 30.6517 56.2381C30.719 56.5441 30.6635 56.8643 30.4971 57.1298C30.3663 57.3042 30.2798 57.4368 30.1901 57.5652H39.4621C39.0963 57.0377 38.8307 56.4474 38.6785 55.8238L37.8514 52.559C37.8143 52.4074 37.8073 52.2501 37.8309 52.0959C37.8546 51.9417 37.9084 51.7936 37.9892 51.6602C38.0701 51.5268 38.1764 51.4106 38.3022 51.3183C38.4279 51.2259 38.5706 51.1593 38.7221 51.1221C38.8737 51.0849 39.031 51.078 39.1852 51.1016C39.3394 51.1252 39.4875 51.179 39.6209 51.2599C39.7543 51.3407 39.8705 51.4471 39.9628 51.5728C40.0552 51.6986 40.1218 51.8413 40.159 51.9928L40.9861 55.2576C41.1588 55.9334 41.5526 56.5319 42.1049 56.9579C42.6572 57.3838 43.3361 57.6127 44.0335 57.6082H44.6863C44.8418 57.6038 44.9965 57.6313 45.1411 57.6888C45.2856 57.7464 45.4169 57.8328 45.5269 57.9428C45.6369 58.0528 45.7233 58.1841 45.7809 58.3286C45.8384 58.4732 45.8658 58.6279 45.8615 58.7834C45.854 59.0888 45.7264 59.3789 45.5064 59.5909C45.2864 59.8028 44.9917 59.9195 44.6863 59.9157Z" fill="#252525"/>
<path d="M44.6863 59.9154H25.23C24.9183 59.9154 24.6193 59.7916 24.3989 59.5712C24.1785 59.3508 24.0547 59.0519 24.0547 58.7402C24.0547 58.4285 24.1785 58.1295 24.3989 57.9091C24.6193 57.6887 24.9183 57.5649 25.23 57.5649H44.6457C44.8012 57.5606 44.956 57.588 45.1005 57.6456C45.2451 57.7031 45.3764 57.7895 45.4864 57.8995C45.5964 58.0095 45.6828 58.1408 45.7403 58.2853C45.7979 58.4299 45.8253 58.5846 45.821 58.7402C45.8246 59.046 45.7075 59.3409 45.4951 59.5609C45.2827 59.7809 44.992 59.9083 44.6863 59.9154Z" fill="#252525"/>
<path d="M50.6966 53.4302H19.223C18.5421 53.4322 17.8675 53.2996 17.238 53.04C16.6086 52.7803 16.0367 52.3988 15.5552 51.9174C15.0737 51.4359 14.6922 50.864 14.4326 50.2345C14.1729 49.6051 14.0403 48.9305 14.0424 48.2496V25.6531C14.0385 25.4978 14.0662 25.3434 14.1239 25.1992C14.1817 25.0551 14.2681 24.9241 14.3781 24.8145C14.4881 24.7048 14.6192 24.6187 14.7635 24.5613C14.9079 24.504 15.0624 24.4766 15.2176 24.4809C15.3721 24.4803 15.5253 24.5102 15.6681 24.569C15.811 24.6279 15.9408 24.7144 16.0501 24.8237C16.1594 24.9329 16.2459 25.0628 16.3047 25.2056C16.3636 25.3485 16.3935 25.5017 16.3929 25.6562V48.206C16.3881 48.5732 16.4569 48.9376 16.5952 49.2777C16.7335 49.6179 16.9385 49.9269 17.1982 50.1866C17.4578 50.4462 17.7668 50.6512 18.107 50.7896C18.4472 50.9279 18.8116 50.9967 19.1787 50.9919H50.653C51.0201 50.9967 51.3845 50.9279 51.7247 50.7896C52.0649 50.6512 52.3739 50.4462 52.6335 50.1866C52.8932 49.9269 53.0982 49.6179 53.2365 49.2777C53.3748 48.9376 53.4436 48.5732 53.4388 48.206V25.6562C53.4388 25.3445 53.5627 25.0455 53.7831 24.8251C54.0035 24.6047 54.3024 24.4809 54.6141 24.4809C54.9258 24.4809 55.2247 24.6047 55.4451 24.8251C55.6655 25.0455 55.7894 25.3445 55.7894 25.6562V48.206C55.8095 48.8864 55.6925 49.5639 55.4453 50.1982C55.1982 50.8325 54.8259 51.4106 54.3507 51.898C53.8756 52.3854 53.3072 52.7723 52.6794 53.0355C52.0516 53.2987 51.3773 53.433 50.6966 53.4302Z" fill="#252525"/>
<path d="M54.6585 26.8303C54.503 26.8346 54.3482 26.8072 54.2037 26.7496C54.0592 26.6921 53.9279 26.6057 53.8179 26.4957C53.7079 26.3857 53.6215 26.2544 53.5639 26.1098C53.5064 25.9653 53.4789 25.8105 53.4833 25.655V23.6527C53.4881 23.2855 53.4194 22.9212 53.2812 22.581C53.143 22.2409 52.9381 21.9318 52.6786 21.6721C52.4191 21.4124 52.1102 21.2073 51.7701 21.0689C51.4301 20.9305 51.0657 20.8616 50.6986 20.8662H44.6909C44.3792 20.8662 44.0803 20.7424 43.8598 20.5219C43.6394 20.3015 43.5156 20.0026 43.5156 19.6909C43.5156 19.3792 43.6394 19.0803 43.8598 18.8599C44.0803 18.6395 44.3792 18.5156 44.6909 18.5156H50.6986C51.3795 18.5135 52.0541 18.6461 52.6836 18.9057C53.3131 19.1653 53.8851 19.5468 54.3666 20.0283C54.848 20.5098 55.2296 21.0817 55.4892 21.7112C55.7488 22.3407 55.8813 23.0153 55.8792 23.6963V25.6999C55.8737 25.8544 55.8377 26.0063 55.7733 26.1468C55.7088 26.2873 55.6173 26.4138 55.5038 26.5188C55.3904 26.6239 55.2573 26.7055 55.1123 26.7589C54.9672 26.8124 54.813 26.8366 54.6585 26.8303Z" fill="#252525"/>
<path d="M15.2177 26.8309C15.0623 26.8352 14.9076 26.8078 14.7631 26.7504C14.6187 26.6929 14.4875 26.6066 14.3775 26.4967C14.2675 26.3869 14.181 26.2557 14.1234 26.1113C14.0658 25.9669 14.0383 25.8123 14.0424 25.6569V23.6533C14.0404 22.9724 14.173 22.2978 14.4326 21.6684C14.6923 21.0389 15.0738 20.467 15.5552 19.9855C16.0367 19.5041 16.6086 19.1225 17.2381 18.8629C17.8675 18.6033 18.5421 18.4707 19.223 18.4727H21.1382C21.4499 18.4727 21.7488 18.5965 21.9692 18.8169C22.1896 19.0373 22.3135 19.3362 22.3135 19.6479C22.3135 19.9596 22.1896 20.2586 21.9692 20.479C21.7488 20.6994 21.4499 20.8232 21.1382 20.8232H19.223C18.8558 20.8184 18.4914 20.8872 18.1513 21.0255C17.8111 21.1638 17.5021 21.3689 17.2424 21.6285C16.9828 21.8882 16.7778 22.1972 16.6394 22.5373C16.5011 22.8775 16.4323 23.2419 16.4371 23.6091V25.6115C16.4412 25.7727 16.4124 25.9331 16.3525 26.0829C16.2927 26.2326 16.203 26.3687 16.089 26.4828C15.9749 26.5968 15.8389 26.6865 15.6891 26.7463C15.5393 26.8062 15.3789 26.835 15.2177 26.8309Z" fill="#252525"/>
<path d="M33.7629 12.291H29.4966V30.4007H33.7629V12.291Z" fill="#14CF6A"/>
<path d="M44.7768 34.7531H25.3174C25.1619 34.7574 25.0071 34.7299 24.8626 34.6724C24.718 34.6149 24.5867 34.5285 24.4767 34.4184C24.3667 34.3084 24.2803 34.1771 24.2228 34.0326C24.1652 33.8881 24.1378 33.7333 24.1421 33.5778C24.1415 33.4233 24.1714 33.2702 24.2302 33.1273C24.2891 32.9844 24.3756 32.8546 24.4849 32.7453C24.5942 32.636 24.724 32.5495 24.8669 32.4907C25.0097 32.4318 25.1629 32.4019 25.3174 32.4025H43.5573V14.9891C43.5577 14.7775 43.5163 14.5679 43.4355 14.3724C43.3547 14.1768 43.2361 13.9991 43.0864 13.8495C42.9368 13.7 42.7591 13.5814 42.5635 13.5007C42.3679 13.4199 42.1583 13.3786 41.9467 13.3791H28.0603C27.8486 13.3786 27.639 13.42 27.4433 13.5007C27.2477 13.5815 27.07 13.7001 26.9203 13.8498C26.7707 13.9994 26.652 14.1772 26.5713 14.3728C26.4905 14.5684 26.4492 14.7781 26.4497 14.9897V29.3581C26.454 29.5137 26.4265 29.6684 26.369 29.813C26.3115 29.9575 26.225 30.0888 26.115 30.1988C26.005 30.3088 25.8737 30.3952 25.7292 30.4527C25.5847 30.5103 25.4299 30.5377 25.2744 30.5334C25.1199 30.5341 24.9667 30.5041 24.8239 30.4453C24.681 30.3864 24.5512 30.2999 24.4419 30.1906C24.3326 30.0814 24.2461 29.9515 24.1873 29.8087C24.1284 29.6658 24.0985 29.5127 24.0991 29.3581V14.9891C24.1038 13.9285 24.5272 12.9127 25.277 12.1627C26.0269 11.4127 27.0427 10.9892 28.1033 10.9844H41.9903C43.0509 10.9891 44.0668 11.4125 44.8169 12.1625C45.5669 12.9125 45.9903 13.9284 45.995 14.9891V33.5809C45.9785 33.8943 45.8435 34.1898 45.6173 34.4075C45.3911 34.6251 45.0906 34.7487 44.7768 34.7531Z" fill="#252525"/>
</svg>
