<svg width="70" height="70" viewBox="0 0 70 70" fill="none" xmlns="http://www.w3.org/2000/svg">
<path d="M14.3525 24.3733C13.2401 23.2448 12.6189 21.7223 12.6245 20.1376C12.6302 18.553 13.2622 17.0349 14.3827 15.9144C15.5032 14.7939 17.0213 14.1619 18.6059 14.1563C20.1905 14.1506 21.7131 14.7718 22.8416 15.8843" fill="#14CF6A"/>
<path d="M47.5681 15.8843C48.6966 14.7718 50.2191 14.1506 51.8038 14.1563C53.3884 14.1619 54.9065 14.7939 56.027 15.9144C57.1475 17.0349 57.7795 18.553 57.7851 20.1376C57.7908 21.7223 57.1696 23.2448 56.0571 24.3733" fill="#14CF6A"/>
<path d="M54.4024 57.4147C54.2078 57.4179 54.0146 57.3809 53.835 57.306C53.6553 57.2311 53.4931 57.1199 53.3585 56.9793L47.6984 51.3652C47.4391 51.0848 47.2985 50.715 47.3059 50.3333C47.3134 49.9515 47.4684 49.5875 47.7384 49.3175C48.0084 49.0475 48.3724 48.8925 48.7542 48.885C49.1359 48.8776 49.5057 49.0182 49.7861 49.2775L55.402 54.8934C55.5459 55.0266 55.6608 55.188 55.7393 55.3677C55.8178 55.5473 55.8584 55.7412 55.8584 55.9373C55.8584 56.1333 55.8178 56.3273 55.7393 56.5069C55.6608 56.6865 55.5459 56.848 55.402 56.9811C55.2758 57.1203 55.1213 57.2309 54.9489 57.3056C54.7766 57.3804 54.5902 57.4175 54.4024 57.4147Z" fill="#252525"/>
<path d="M15.6958 57.4147C15.4658 57.4141 15.2411 57.3457 15.0501 57.218C14.859 57.0904 14.7102 56.9092 14.6223 56.6973C14.5344 56.4855 14.5114 56.2525 14.5563 56.0276C14.6011 55.8028 14.7117 55.5962 14.8741 55.4339L29.9833 40.3721C30.0896 40.2576 30.218 40.1656 30.3608 40.1017C30.5036 40.0378 30.6579 40.0033 30.8144 40.0002C30.9709 39.9972 31.1264 40.0256 31.2716 40.0839C31.4168 40.1422 31.5487 40.2292 31.6594 40.3395C31.7701 40.4498 31.8573 40.5813 31.9158 40.726C31.9743 40.8707 32.0028 41.0257 31.9998 41.1817C31.9967 41.3377 31.9621 41.4914 31.898 41.6338C31.8339 41.7761 31.7416 41.9041 31.6266 42.01L16.5503 57.0732C16.4378 57.1839 16.3043 57.2711 16.1575 57.3297C16.0108 57.3884 15.8538 57.4173 15.6958 57.4147Z" fill="#252525"/>
<path d="M35.2045 38.2605C35.0031 38.2653 34.8028 38.2293 34.6158 38.1544C34.4288 38.0796 34.2589 37.9676 34.1164 37.8251C33.974 37.6827 33.862 37.5128 33.7871 37.3258C33.7123 37.1387 33.6762 36.9384 33.6811 36.737V14.4046C33.6811 14.0005 33.8416 13.6129 34.1274 13.3271C34.4132 13.0414 34.8007 12.8809 35.2048 12.8809C35.6089 12.8809 35.9965 13.0414 36.2823 13.3271C36.568 13.6129 36.7286 14.0005 36.7286 14.4046V36.737C36.7238 37.1397 36.5617 37.5245 36.2769 37.8092C35.9921 38.0939 35.6072 38.2558 35.2045 38.2605Z" fill="#252525"/>
<path d="M41.082 35.3428H38.4263C38.0839 34.565 37.4626 33.9437 36.6849 33.6013L36.6413 26.7242C36.6389 26.5382 36.5998 26.3545 36.5262 26.1836C36.4526 26.0128 36.346 25.8582 36.2125 25.7287C36.079 25.5992 35.9212 25.4973 35.7482 25.4289C35.5752 25.3606 35.3904 25.327 35.2044 25.3303C34.8244 25.3335 34.4607 25.4859 34.192 25.7547C33.9232 26.0235 33.7708 26.3871 33.7676 26.7671L33.8112 33.602C33.1954 33.8716 32.6729 34.317 32.3089 34.8822C31.945 35.4474 31.7559 36.1074 31.7652 36.7796C31.7633 37.2432 31.8532 37.7027 32.0297 38.1314C32.2062 38.5601 32.4659 38.9496 32.7937 39.2775C33.1216 39.6053 33.5111 39.865 33.9398 40.0415C34.3686 40.2181 34.828 40.3079 35.2916 40.306C35.9593 40.2948 36.6105 40.0973 37.172 39.7358C37.7334 39.3743 38.1827 38.8632 38.4693 38.26L41.171 38.2164C41.358 38.2176 41.5433 38.181 41.7158 38.1086C41.8883 38.0363 42.0443 37.9298 42.1745 37.7955C42.3046 37.6613 42.4063 37.502 42.4733 37.3274C42.5403 37.1528 42.5712 36.9665 42.5643 36.7796C42.5616 36.5878 42.5212 36.3985 42.4452 36.2224C42.3692 36.0463 42.2592 35.8869 42.1215 35.7534C41.9837 35.6199 41.821 35.5149 41.6427 35.4444C41.4643 35.374 41.2737 35.3394 41.082 35.3428Z" fill="#252525"/>
<path d="M35.2044 57.4151C31.1145 57.4064 27.1191 56.1851 23.7233 53.9057C20.3275 51.6262 17.6839 48.391 16.1269 44.609C14.5699 40.8271 14.1694 36.6684 14.9759 32.6588C15.7825 28.6493 17.76 24.9689 20.6583 22.0832C23.5566 19.1976 27.2455 17.2362 31.2586 16.4471C35.2716 15.658 39.4286 16.0767 43.2037 17.6502C46.9788 19.2238 50.2024 21.8814 52.4671 25.2871C54.7317 28.6928 55.9355 32.6936 55.9263 36.7835C55.8895 42.2596 53.6917 47.4996 49.811 51.3635C45.9302 55.2273 40.6807 57.4022 35.2044 57.4151ZM35.2044 19.1066C31.7087 19.1066 28.2916 20.1432 25.385 22.0853C22.4785 24.0275 20.2131 26.7879 18.8754 30.0175C17.5377 33.2471 17.1877 36.8008 17.8697 40.2293C18.5517 43.6579 20.2351 46.8071 22.707 49.2789C25.1788 51.7507 28.3282 53.434 31.7567 54.1159C35.1852 54.7978 38.739 54.4477 41.9685 53.1098C45.1981 51.772 47.9584 49.5065 49.9004 46.5999C51.8425 43.6933 52.8789 40.2761 52.8788 36.7804C52.8761 32.0938 51.013 27.5999 47.699 24.286C44.385 20.9721 39.8911 19.1092 35.2044 19.1066Z" fill="#252525"/>
<path d="M55.0998 24.9394C54.8531 24.9362 54.6106 24.8755 54.3914 24.7622C54.1723 24.6489 53.9826 24.4861 53.8373 24.2866C52.2221 21.8357 50.1176 19.7451 47.6559 18.1463C47.3268 17.9212 47.1007 17.5745 47.0272 17.1826C46.9537 16.7908 47.039 16.3858 47.2641 16.0567C47.4893 15.7277 47.8359 15.5016 48.2278 15.4281C48.6196 15.3546 49.0246 15.4398 49.3537 15.665C52.1001 17.519 54.4646 19.8836 56.3187 22.63C56.538 22.9605 56.6198 23.3635 56.5467 23.7534C56.4735 24.1432 56.2512 24.4892 55.9269 24.7177C55.6675 24.8426 55.3869 24.9178 55.0998 24.9394Z" fill="#252525"/>
<path d="M15.3539 24.8537C15.0443 24.8545 14.7414 24.7637 14.4832 24.5928C14.3178 24.4837 14.176 24.3424 14.0663 24.1773C13.9566 24.0122 13.8812 23.8268 13.8447 23.632C13.8081 23.4372 13.8111 23.237 13.8535 23.0434C13.8959 22.8498 13.9769 22.6667 14.0915 22.5051C15.9518 19.8179 18.2815 17.4882 20.9687 15.6279C21.2977 15.4027 21.7027 15.3175 22.0946 15.391C22.4865 15.4645 22.8331 15.6906 23.0582 16.0196C23.2834 16.3487 23.3686 16.7537 23.2951 17.1455C23.2217 17.5374 22.9955 17.884 22.6665 18.1092C20.2528 19.7175 18.1817 21.7882 16.5728 24.2016C16.4397 24.4029 16.2586 24.568 16.0458 24.6818C15.8331 24.7956 15.5953 24.8547 15.3539 24.8537Z" fill="#252525"/>
<path d="M39.7759 14.709C39.6716 14.7163 39.567 14.7014 39.4689 14.6654C36.6382 14.0994 33.7234 14.0994 30.8927 14.6654C30.5027 14.7287 30.1035 14.6359 29.7814 14.4072C29.4593 14.1784 29.2402 13.832 29.1716 13.443C29.1029 13.0539 29.1901 12.6535 29.4144 12.3282C29.6387 12.003 29.9821 11.7792 30.3701 11.7051C33.5774 11.0957 36.8708 11.0957 40.078 11.7051C40.4647 11.7856 40.8061 12.0106 41.0326 12.3342C41.2591 12.6578 41.3536 13.0557 41.2969 13.4465C41.2268 13.7996 41.0374 14.1178 40.7605 14.3477C40.4835 14.5776 40.1358 14.7052 39.7759 14.709Z" fill="#252525"/>
</svg>
