<svg xmlns="http://www.w3.org/2000/svg" fill="none" viewBox="0 0 17 18">
  <g clip-path="url(#a)">
    <mask id="b" width="17" height="18" x="0" y="0" maskUnits="userSpaceOnUse" style="mask-type:luminance">
      <path fill="#fff" d="M17 .5H0v17h17V.5Z"/>
    </mask>
    <g mask="url(#b)">
      <path fill="#fff" d="M8.5 17.5a8.5 8.5 0 1 0 0-17 8.5 8.5 0 0 0 0 17Z"/>
      <path fill="#F0263C" d="M0 9c0 .868.124 1.7.372 2.48h16.256C16.858 10.7 17 9.868 17 9c0-.867-.124-1.7-.372-2.479H.372A8.157 8.157 0 0 0 0 9.001Z"/>
      <path fill="#000" d="M8.5.5A8.502 8.502 0 0 0 .62 5.813h15.76A8.502 8.502 0 0 0 8.5.5Z"/>
      <path fill="#005B13" d="M8.5 17.5a8.502 8.502 0 0 0 7.88-5.313H.62A8.502 8.502 0 0 0 8.5 17.5Z"/>
      <path fill="#fff" d="M7.243 5.176s.195-.425.018-.78c-.178-.354-.886-1.062-.886-1.062s-.177 1.062 0 1.417c.177.354.55.584.55.584l.336.92.247-.371-.265-.708Zm2.507 0s-.195-.425-.018-.78c.177-.354.885-1.062.885-1.062s.177 1.062 0 1.417c-.177.354-.549.584-.549.584l-.336.92-.248-.371.265-.708Zm.485 9.137h.372l-.92-2.497-.23.372.778 2.125Zm-3.842 0h.371l.78-2.125-.23-.372-.921 2.497Z"/>
      <path fill="#F0263C" d="M8.5 4.396c-.594 0-1.09 1.637-1.417 2.125v4.959s.744 2.125 1.435 2.125c.69 0 1.399-2.125 1.399-2.125V6.52C9.59 6.033 9.094 4.396 8.5 4.396Zm-.708 1.417h.354v2.125h-.354V5.813Zm0 6.375v-2.125h.354v2.125h-.354Zm0-3.187a.71.71 0 0 1 .708-.709.71.71 0 0 1 .708.709.71.71 0 0 1-.708.708.71.71 0 0 1-.708-.708Zm1.416 3.187h-.354v-2.125h.354v2.125Zm0-4.25h-.354V5.813h.354v2.125Z"/>
      <path fill="#000" d="M6.375 9c0 1.063.708 2.48.708 2.48S7.26 9.886 7.26 9c0-.885-.177-2.479-.177-2.479s-.708 1.417-.708 2.48Zm4.25 0c0-1.062-.708-2.479-.708-2.479s-.177 1.417-.177 2.48c0 1.062.177 2.479.177 2.479s.708-1.417.708-2.48Z"/>
      <path fill="#fff" d="M8.5 9.708a.708.708 0 1 0 0-1.417.708.708 0 0 0 0 1.417Zm.709-3.895h-.355v2.125h.355V5.813Zm-1.063 0h-.354v2.125h.354V5.813Zm1.063 4.25h-.355v2.124h.355v-2.124Zm-1.063 0h-.354v2.124h.354v-2.124Z"/>
    </g>
  </g>
  <defs>
    <clipPath id="a">
      <rect width="17" height="17" y=".5" fill="#fff" rx="8.5"/>
    </clipPath>
  </defs>
</svg>