<svg width="70" height="70" viewBox="0 0 70 70" fill="none" xmlns="http://www.w3.org/2000/svg">
<path d="M20.0621 29.4239C19.7755 29.4211 19.4911 29.4754 19.2257 29.5838C18.9603 29.6922 18.7192 29.8524 18.5165 30.0551C18.3138 30.2578 18.1536 30.4989 18.0452 30.7643C17.9368 31.0297 17.8825 31.314 17.8854 31.6007V42.9192H53.5823V31.6007C53.5852 31.314 53.5308 31.0297 53.4224 30.7643C53.3141 30.4989 53.1538 30.2578 52.9511 30.0551C52.7484 29.8524 52.5073 29.6922 52.2419 29.5838C51.9765 29.4754 51.6922 29.4211 51.4055 29.4239H20.0621Z" fill="#E7ECF2"/>
<path d="M35.7338 46.4012C37.6573 46.4012 39.2166 44.8419 39.2166 42.9184C39.2166 40.9949 37.6573 39.4355 35.7338 39.4355C33.8103 39.4355 32.251 40.9949 32.251 42.9184C32.251 44.8419 33.8103 46.4012 35.7338 46.4012Z" fill="#14CF6A"/>
<path d="M51.4053 57.7192H20.0619C19.1391 57.7166 18.2548 57.3489 17.6023 56.6965C16.9497 56.044 16.5819 55.1598 16.5791 54.237V31.6C16.5817 30.6771 16.9495 29.7927 17.6021 29.1401C18.2546 28.4876 19.139 28.1198 20.0619 28.1172H51.4053C52.3282 28.1198 53.2126 28.4876 53.8652 29.1401C54.5178 29.7927 54.8855 30.6771 54.8881 31.6V54.237C54.8854 55.1598 54.5175 56.044 53.865 56.6965C53.2124 57.3489 52.3281 57.7166 51.4053 57.7192ZM20.0619 30.7293C19.8312 30.7299 19.6101 30.8219 19.4469 30.985C19.2838 31.1482 19.1919 31.3693 19.1912 31.6V54.237C19.1919 54.4677 19.2838 54.6888 19.4469 54.852C19.6101 55.0151 19.8312 55.1071 20.0619 55.1077H51.4053C51.6361 55.1071 51.8571 55.0151 52.0203 54.852C52.1834 54.6888 52.2754 54.4677 52.276 54.237V31.6C52.2754 31.3693 52.1834 31.1482 52.0203 30.985C51.8571 30.8219 51.6361 30.7299 51.4053 30.7293H20.0619Z" fill="#252525"/>
<path d="M35.7333 51.6239C33.4263 51.6171 31.2157 50.6976 29.5844 49.0663C27.9531 47.435 27.0337 45.2244 27.0269 42.9175C27.0261 42.0471 27.1582 41.1818 27.4186 40.3514C27.4648 40.1859 27.5434 40.0313 27.6499 39.8965C27.7564 39.7617 27.8887 39.6494 28.0391 39.5663C28.1894 39.4832 28.3548 39.4308 28.5256 39.4123C28.6964 39.3937 28.8692 39.4093 29.0339 39.4582C29.1986 39.5071 29.3519 39.5883 29.4849 39.6971C29.6179 39.8059 29.7279 39.94 29.8085 40.0917C29.8891 40.2435 29.9387 40.4097 29.9544 40.5808C29.9701 40.7519 29.9516 40.9244 29.8999 41.0882C29.728 41.6826 29.6402 42.2981 29.639 42.9168C29.6438 44.1929 30.0505 45.435 30.8015 46.4668C31.5524 47.4985 32.6093 48.2674 33.8221 48.6643C35.0349 49.0612 36.3419 49.0659 37.5575 48.6777C38.7731 48.2895 39.8355 47.5282 40.5938 46.5019C41.3521 45.4756 41.7677 44.2364 41.7817 42.9604C41.7957 41.6844 41.4073 40.4364 40.6716 39.3937C39.936 38.351 38.8905 37.5666 37.6837 37.1519C36.4769 36.7372 35.1701 36.7133 33.9489 37.0835C33.7861 37.1372 33.614 37.1571 33.4433 37.142C33.2725 37.1268 33.1066 37.077 32.9558 36.9955C32.805 36.9139 32.6725 36.8025 32.5663 36.6679C32.4601 36.5333 32.3825 36.3784 32.3383 36.2128C32.289 36.0499 32.2724 35.8788 32.2896 35.7095C32.3067 35.5401 32.3572 35.3759 32.4381 35.2261C32.5191 35.0764 32.6289 34.9442 32.7612 34.8371C32.8935 34.73 33.0457 34.6502 33.209 34.6022C34.0243 34.3386 34.8764 34.2065 35.7333 34.211C38.0423 34.211 40.2569 35.1283 41.8896 36.7611C43.5224 38.3939 44.4397 40.6084 44.4397 42.9175C44.4397 45.2265 43.5224 47.441 41.8896 49.0738C40.2569 50.7066 38.0423 51.6239 35.7333 51.6239Z" fill="#252525"/>
<path d="M44.8734 26.8119C44.701 26.815 44.5297 26.7834 44.3699 26.7189C44.21 26.6544 44.0647 26.5583 43.9428 26.4364C43.8209 26.3145 43.7248 26.1692 43.6603 26.0093C43.5958 25.8495 43.5642 25.6782 43.5673 25.5058V24.1998C43.5673 22.1215 42.7417 20.1284 41.2722 18.6589C39.8027 17.1893 37.8096 16.3638 35.7313 16.3638C33.6531 16.3638 31.66 17.1893 30.1904 18.6589C28.7209 20.1284 27.8953 22.1215 27.8953 24.1998V25.5058C27.8953 25.8522 27.7577 26.1844 27.5128 26.4293C27.2678 26.6743 26.9356 26.8119 26.5893 26.8119C26.2429 26.8119 25.9107 26.6743 25.6657 26.4293C25.4208 26.1844 25.2832 25.8522 25.2832 25.5058V24.1998C25.2832 21.4288 26.384 18.7714 28.3433 16.812C30.3026 14.8527 32.9601 13.752 35.731 13.752C38.5019 13.752 41.1594 14.8527 43.1187 16.812C45.0781 18.7714 46.1788 21.4288 46.1788 24.1998V25.5058C46.182 25.6781 46.1504 25.8493 46.0859 26.0092C46.0214 26.169 45.9254 26.3143 45.8035 26.4362C45.6817 26.5581 45.5365 26.6542 45.3767 26.7187C45.2169 26.7833 45.0457 26.8149 44.8734 26.8119Z" fill="#252525"/>
<path d="M50.0993 26.8113C49.9269 26.8145 49.7557 26.7828 49.5958 26.7183C49.4359 26.6538 49.2907 26.5577 49.1688 26.4358C49.0468 26.3139 48.9508 26.1687 48.8862 26.0088C48.8217 25.8489 48.7901 25.6776 48.7933 25.5052V24.1998C48.7933 22.4848 48.4555 20.7865 47.7991 19.202C47.1428 17.6175 46.1808 16.1778 44.9681 14.965C43.7554 13.7523 42.3157 12.7903 40.7312 12.134C39.1467 11.4777 37.4484 11.1399 35.7334 11.1399C34.0183 11.1399 32.32 11.4777 30.7355 12.134C29.151 12.7903 27.7113 13.7523 26.4986 14.965C25.2859 16.1778 24.3239 17.6175 23.6676 19.202C23.0113 20.7865 22.6734 22.4848 22.6734 24.1998V25.5059C22.6734 25.8522 22.5358 26.1844 22.2909 26.4294C22.046 26.6743 21.7138 26.8119 21.3674 26.8119C21.021 26.8119 20.6888 26.6743 20.4439 26.4294C20.1989 26.1844 20.0613 25.8522 20.0613 25.5059V24.1998C20.0484 22.1335 20.4442 20.0851 21.226 18.1723C22.0078 16.2596 23.1601 14.5203 24.6166 13.0547C26.0732 11.589 27.8052 10.4258 29.713 9.63205C31.6208 8.83831 33.6667 8.42969 35.7331 8.42969C37.7994 8.42969 39.8453 8.83831 41.7531 9.63205C43.6609 10.4258 45.3929 11.589 46.8495 13.0547C48.306 14.5203 49.4583 16.2596 50.2401 18.1723C51.0219 20.0851 51.4177 22.1335 51.4048 24.1998V25.5059C51.4078 25.6781 51.3762 25.8493 51.3117 26.009C51.2472 26.1688 51.1511 26.314 51.0293 26.4358C50.9074 26.5576 50.7623 26.6537 50.6025 26.7182C50.4427 26.7827 50.2716 26.8144 50.0993 26.8113Z" fill="#252525"/>
</svg>
